<?xml version="1.0" standalone="no"?>
<!DOCTYPE svg PUBLIC "-//W3C//DTD SVG 20010904//EN"
 "http://www.w3.org/TR/2001/REC-SVG-20010904/DTD/svg10.dtd">
<svg version="1.0" xmlns="http://www.w3.org/2000/svg"
 width="1500.000000pt" height="1500.000000pt" viewBox="0 0 1500.000000 1500.000000"
 preserveAspectRatio="xMidYMid meet">
<metadata>
Created by potrace 1.14, written by Peter Selinger 2001-2017
</metadata>
<g transform="translate(0.000000,1500.000000) scale(0.100000,-0.100000)"
fill="#000000" stroke="none">
<path d="M3239 14996 c-3 -3 -29 -7 -59 -11 -95 -9 -190 -21 -240 -30 -29 -4
-116 -21 -205 -39 -22 -5 -104 -25 -120 -30 -5 -2 -23 -6 -40 -10 -110 -28
-321 -101 -413 -142 -29 -13 -54 -24 -56 -24 -11 0 -196 -91 -291 -143 -363
-198 -681 -457 -982 -799 -106 -121 -272 -359 -376 -540 -167 -290 -317 -680
-372 -966 -2 -9 -4 -17 -5 -17 -2 0 -5 -15 -19 -90 -6 -33 -13 -69 -15 -80 -2
-11 -7 -45 -11 -75 -3 -30 -8 -66 -10 -80 -2 -14 -7 -54 -12 -90 -10 -83 -11
-8575 0 -8655 4 -33 10 -78 13 -100 5 -43 22 -152 30 -198 106 -621 428 -1272
864 -1741 415 -448 914 -770 1485 -961 102 -33 299 -87 370 -99 17 -3 41 -8
55 -11 44 -9 84 -17 110 -20 14 -2 39 -6 55 -9 17 -2 59 -7 95 -11 36 -4 79
-10 95 -13 56 -12 8513 -14 8600 -3 44 6 105 13 135 16 30 3 62 8 70 10 8 2
35 6 59 9 25 3 67 10 95 15 28 6 62 13 76 15 148 28 477 128 595 181 17 7 73
32 125 55 87 39 175 83 305 155 315 175 696 495 944 795 401 482 678 1093 767
1690 3 19 7 42 9 50 2 8 7 47 11 85 3 39 9 84 12 100 11 59 14 8515 3 8605 -6
47 -13 103 -16 125 -64 558 -275 1113 -600 1580 -227 326 -512 616 -830 843
-66 48 -130 92 -140 99 -11 6 -60 36 -110 66 -365 222 -833 393 -1240 453 -27
4 -57 9 -65 10 -8 2 -42 6 -76 9 -33 4 -74 9 -90 13 -33 7 -8578 15 -8585 8z"/>
</g>
</svg>
